<svg xmlns="http://www.w3.org/2000/svg" viewBox="0 0 803 617"><defs><style>.cls-1{fill:#666;}.cls-2{fill:#999;}.cls-3,.cls-6{fill:#931b8a;}.cls-3,.cls-4{stroke:#fff;}.cls-10,.cls-12,.cls-14,.cls-3,.cls-4{stroke-miterlimit:10;}.cls-3{stroke-width:5px;}.cls-4{fill:#fff;}.cls-5{fill:#403e5a;}.cls-7{fill:#ccc;}.cls-8{fill:#b3b3b3;}.cls-9{fill:#e6e6e6;}.cls-10{fill:none;}.cls-10,.cls-12,.cls-14{stroke:#000;}.cls-11{fill:#b224ab;}.cls-12,.cls-13{fill:#392b4b;}.cls-14,.cls-15{fill:#702c70;}.cls-16{fill:#ffb3b7;}.cls-17{fill:#575a8d;}.cls-18{fill:#222a77;}.cls-19{fill:#322e42;}.cls-20{fill:#792071;}</style></defs><title>Registro</title><g id="Capa_1" data-name="Capa 1"><path class="cls-1" d="M440,384.79c0,1.66-17.12,3-38.24,3s-38.23-1.34-38.23-3v-2.45H440Z" transform="translate(-3 -0.5)"/><ellipse class="cls-2" cx="398.8" cy="382.11" rx="38.24" ry="3"/><path class="cls-3" d="M191,3H404c7.16,0,13,9.38,13,20.84V175.32c0,11.46-5.85,20.84-13,20.84l-35.39.44-2.71,47.9-28-47.9L191,196.16c-7.16,0-13-9.38-13-20.84V23.84C178,12.38,183.85,3,191,3Z" transform="translate(-3 -0.5)"/><path class="cls-1" d="M396.45,377.07c-1.32,2-5.31,4.24-5.31,4.24s6.37-1.06,6.37,1.07,4.25,0,8.5,0,11.68-2.13,9.56-2.13-6.37-3.18-9.56-6.37-13.81-24.43-15.93-29.74-4.08-6.55-4.08-6.55l-.17,19.47s1.06-2.3,2.12-.18S398.57,373.88,396.45,377.07Z" transform="translate(-3 -0.5)"/></g><g id="Registro"><rect class="cls-4" x="183.94" y="11" width="219.57" height="174.5" rx="7.84" ry="7.84"/><rect class="cls-5" x="216.5" y="54" width="17" height="7" rx="1.16" ry="1.16"/><rect class="cls-5" x="244.5" y="54" width="123.5" height="7" rx="2.22" ry="2.22"/><rect class="cls-5" x="216.5" y="71" width="17" height="7" rx="1.16" ry="1.16"/><rect class="cls-5" x="244.5" y="71" width="75" height="7" rx="2.22" ry="2.22"/><rect class="cls-6" x="216.5" y="88" width="17" height="7" rx="1.16" ry="1.16"/><rect class="cls-6" x="244.5" y="88" width="136" height="7" rx="2.22" ry="2.22"/><rect class="cls-6" x="216.5" y="105" width="17" height="7" rx="1.16" ry="1.16"/><rect class="cls-6" x="244.5" y="105" width="145.5" height="7" rx="2.22" ry="2.22"/><rect class="cls-5" x="216.5" y="122" width="17" height="7" rx="1.16" ry="1.16"/><rect class="cls-5" x="244.5" y="122" width="117.5" height="7" rx="2.22" ry="2.22"/><rect class="cls-7" x="216.5" y="139" width="17" height="7" rx="1.16" ry="1.16"/><rect class="cls-7" x="244.5" y="139" width="64" height="7" rx="2.22" ry="2.22"/><rect class="cls-5" x="216.5" y="156" width="17" height="7" rx="1.16" ry="1.16"/><rect class="cls-5" x="244.5" y="156" width="136" height="7" rx="2.22" ry="2.22"/></g><g id="Computadora"><path class="cls-8" d="M377.27,366.44l1.55,1.55a.33.33,0,0,0,.57-.24v-5.56l-1.06-120.87a.33.33,0,0,0-.18-.3l-1.6-.8a.34.34,0,0,0-.47.2l-.92,2.76a.43.43,0,0,0,0,.11l1.07,122a.34.34,0,0,0,.09.24Z" transform="translate(-3 -0.5)"/><path class="cls-1" d="M378.33,241.11s8.5,7.43,8.5,10.62V363.26s-3.54,4.6-7.08,2.83Z" transform="translate(-3 -0.5)"/><ellipse class="cls-9" cx="255" cy="621" rx="255" ry="22.5"/></g><g id="Mesa"><path class="cls-10" d="M395.51,382.14" transform="translate(-3 -0.5)"/><polygon class="cls-1" points="325.65 387.26 264.12 387.26 245.43 380.5 306.96 380.5 325.65 387.26"/><polygon class="cls-5" points="270 398.5 444.57 397.34 446.29 616.2 342.18 615.73 342 416.5 271 416.5 270 398.5"/><path class="cls-7" d="M210.75,390.38v-2.31L448,386l2,231H411l-3.14-212.54S278.74,406.72,261,406s-48-1-48-1l-2.25-14.62" transform="translate(-3 -0.5)"/></g><g id="Silla"><path class="cls-11" d="M116.28,472.25S121,487.43,165.35,486c0,0,17.14-.73,19.48,2.16s2.72.37,4.28,4-4.67-6.51-.78-8.67,21.81-6.51,28-5.06c0,0,14.8-10.12,18.7-15.18s3.11-6.51,3.89-7.23,1.56-7.95,0-8.67-8.57-7.95-24.15-7.23-35.05,2.17-41.28,5.06-3.89.72-17.91.72-21-1.44-28.05,0-13.24,5.79-13.24,8.68a7.78,7.78,0,0,1-2.33,5.06S112,471.17,116.28,472.25Z" transform="translate(-3 -0.5)"/><path class="cls-12" d="M112.77,465.39s2.34,15.17,68.55,13L219,476.59l-2.66,1.81s-8.57-2.17-28,5.06c0,0-8.31,2.65-10.77,2.77s-6.24-.49-13.7-.18a127.53,127.53,0,0,1-15.38-.49s-24,.79-32.59-13.67C115.89,471.89,114.33,471.17,112.77,465.39Z" transform="translate(-3 -0.5)"/><path class="cls-10" d="M113.42,457.8s75.69,8.31,124.76-1.09c0,0,3.12-2.16.78-9.39,0,0-9.35-7.95-21.81-7.23l-21,1.21s-17.92,1.68-22.59,3.85-5.19,1.69-10.38.84l-29.6-.84s-16.88,1.45-19.22,9.4A3.57,3.57,0,0,1,113.42,457.8Z" transform="translate(-3 -0.5)"/><path class="cls-11" d="M64.29,289s-7.2,2.16-4.8,7.95,20.82,95.4,20.82,95.4l16.81,64.32s-.8,24.58,28.83,35.42c0,0,4.8,2.17,5.6,2.17s56.85,1.44,58.45.72.8-2.89.8-2.89l-2.4-7.23-70.46-31.08.8-15.9L116.34,409a104.71,104.71,0,0,0-8.81-18.07c-6.41-10.84-11.21-33.24-12-41.92S90.72,297.71,64.29,289Z" transform="translate(-3 -0.5)"/><path class="cls-10" d="M179,504.42" transform="translate(-3 -0.5)"/><path class="cls-13" d="M188.33,495s3.12,2.17-.78,6.5-13.24,2.17-13.24,2.17-2.34,2.89-2.34,5.06-.78,24.58-.78,24.58H152.5s4.67-27.47,0-27.47-28.82,0-38.17-9.39-3.11,3.61-27.26-27.47l11.1-8.67Z" transform="translate(-3 -0.5)"/><path class="cls-14" d="M156.39,533.33l.78,14.45s10.13,1.45,10.13,0V533.33Z" transform="translate(-3 -0.5)"/><path class="cls-15" d="M92.52,609.21a9.86,9.86,0,0,1,3.9-8c3.89-2.89,51.41-36.13,56.86-38.3,0,0-16.36,33.24-16.36,34.69s-1.56,8.67.78,12.29c0,0-4.67,4.33-4.67,5.06s10.9,0,10.9,0L140,609.94v-8l21-34.7S179,599.1,179,600.54s.78,10.12.78,10.12l-3.89,5.06s10.12.72,10.12,0-3.11-5.06-3.11-5.06V596.93c0-1.45-16.36-34-16.36-34s42.06,34,56.08,41.2c0,0,1.56,5.05,1.56,5.78s-3.89,5.78-3.89,5.78H232l-4.67-5.06L225.72,602,169.64,548.5l-1.56-.72h-.78s-.78,1.45-10.13,0h-2.33s-54.53,38.31-62.32,50.59c0,0-3.11,8-3.89,9.4a28.52,28.52,0,0,1-3.9,4.34v2.16H95.64v-1.44Z" transform="translate(-3 -0.5)"/></g><g id="Hombre"><path class="cls-13" d="M120.68,409.11s-14,35.83,4.67,47.26,108.27.76,108.27.76L224.28,541l-2.34,27.45,35.83.76s14.8-138,14.8-139.51-9.35-9.15-23.37-9.15-112.16-6.1-115.28-6.86S120.68,409.11,120.68,409.11Z" transform="translate(-3 -0.5)"/><path class="cls-13" d="M240.25,579.49c-.78,0-14,0-13.25.76s-2.33,14.49-3.11,18.3-4.68,11.43,2.33,13.72,68.55.76,68.55.76,8.57-12.19,6.23-15.24-20.25-3.82-24.92-6.86a138.49,138.49,0,0,1-14.8-11.44c-2.34-2.29-4.68-3-7.79-2.29s-3.12,9.15-3.9,9.15S240.25,579.49,240.25,579.49Z" transform="translate(-3 -0.5)"/><polygon class="cls-16" points="227.31 568.32 226.73 578.61 236.86 578.61 246.2 585.47 249.22 578.04 250.19 577.08 250.19 568.7 227.31 568.32"/><path class="cls-17" d="M124.67,290.44s-19.34,10.16-19.27,15.5c.07,4.6,11.46,81.81,14.6,102.06.47,3,12,5.57,15,6l40,3.87s5.66-22.19,3.25-27.49-3.38-77-8.18-86.05a108.84,108.84,0,0,0-9.56-15.12,3.06,3.06,0,0,1-3.89.05c-2.36-1.5-21.85-2.77-21.85-2.77Z" transform="translate(-3 -0.5)"/><path class="cls-9" d="M131.14,280.06l-6.07,11.52s25.81,7.28,28.19,10.3,7.62-12.3,7.62-12.3-16.43-5.12-19.57-6.6S131.14,280.06,131.14,280.06Z" transform="translate(-3 -0.5)"/><polygon class="cls-9" points="159.43 288.3 168.17 301.15 160.38 301.25 157.88 289.08 159.43 288.3"/><path class="cls-17" d="M107.5,319.5l31,69.11L210.94,390l19.57,1.62-2.34-16.77-25.27-3.05s-37.43-2.56-42.09-1.73S147,329.79,147,329.79" transform="translate(-3 -0.5)"/><path class="cls-18" d="M107.5,319.5,123.21,354l15.57,34.52-.3-.2,46.06.75,23,.37,2.88.05c1,0,1.92.14,2.87.21l5.74.49,11.49,1-.49.51-2.3-16.77.36.35-13.74-1.68-6.87-.85c-2.3-.26-4.56-.62-6.87-.72-9.21-.62-18.42-1.2-27.64-1.6-2.31-.09-4.61-.18-6.91-.22-1.16,0-2.31,0-3.45,0a13.6,13.6,0,0,0-1.7.12,1.35,1.35,0,0,1-1-.21,3.28,3.28,0,0,1-.7-.63,13.9,13.9,0,0,1-1.81-3c-.49-1.05-.93-2.13-1.34-3.21-.81-2.17-1.53-4.37-2.21-6.57-2.69-8.85-4.86-17.83-6.86-26.84,2.12,9,4.41,17.94,7.21,26.73.7,2.19,1.45,4.37,2.29,6.51.42,1.07.87,2.13,1.36,3.17a13.57,13.57,0,0,0,1.75,2.89c.36.4.79.78,1.23.66a13.27,13.27,0,0,1,1.76-.13c1.16,0,2.32,0,3.47,0,2.32,0,4.62.11,6.93.19,9.23.36,18.45.9,27.67,1.47,2.3.1,4.61.45,6.9.7l6.87.81,13.76,1.63.32,0,0,.32L231,391.51l.08.56-.57-.05L219,391.1l-5.73-.46c-1-.07-1.91-.19-2.87-.2l-2.88-.06-23-.48-46-.95h-.22l-.09-.19-15.4-34.59Z" transform="translate(-3 -0.5)"/><path class="cls-17" d="M174.41,339s.35,25.54,6.6,27,35.35,1.49,35.35,1.49l31.55,4.83L247.65,387,236,385.47l-7.79-8.38-10.44-3.24-41.73-4Z" transform="translate(-3 -0.5)"/><path class="cls-16" d="M132.91,266.7l.57,13.52,27,9-1-16.76s17.19,3.45,17.13-1c0-.76.53-18.3.53-18.3s7-.1,7-1.62-5.52-4.5-5.56-7.55-1.05-19.81-1.05-19.81-11.6,6.25-18.64,4-14,1-14,1l.16,11.43s-3.93-2.23-6.24-.68.12,9.15.91,9.9,3.17,3.77,3.18,4.54-6.11,9.23-6.11,9.23l-3.5.42Z" transform="translate(-3 -0.5)"/><path class="cls-19" d="M132.91,266.7s-15.17-27.25-13-38.72,6-14.56,10.69-15.39S179.18,204,180,207s-.19,14.1-2.49,17.18-15.12,5.15-16.1,5-6.07-2.39-8.2-1.6a63.2,63.2,0,0,1-8.35,1.63l.16,11.43s-5.52-2.78-7,.56,1.75,9.08,1.75,9.08,3.58,3.08,2.67,4.67-5.92,8.58-5.92,8.58l-3,1Z" transform="translate(-3 -0.5)"/><path class="cls-16" d="M227.78,375.94s23.37.77,24.93,1.53,15.58,10.67,15.58,10.67l-38.17-.57Z" transform="translate(-3 -0.5)"/><polyline class="cls-16" points="244.65 372.78 270.35 374.3 287.49 387.26 244.65 386.5"/><path class="cls-20" d="M117.56,482.73S130,497.91,137.82,490s16.35-77.33,30.37-80.95,34.28-4.33,34.28-4.33l-.78-6.51-58.42,2.17-3.9,5.78s3.12,5.06,3.12,8.67S117.56,482.73,117.56,482.73Z" transform="translate(-3 -0.5)"/><path class="cls-20" d="M83.17,463.94s3.12,5.06,3.9,5.06,15.58-11.56,17.91-14.45,14-5.06,17.92-24.58-12.46-24.57-12.46-24.57-28-9.4-31.16-13.73l1.36-4.52-1.36-5.6a11.21,11.21,0,0,0-3.89,12.29c2.33,8,2.85,23.12,14.67,31.43s7.14,15.54,3.24,22.05S84,463.94,84,463.94" transform="translate(-3 -0.5)"/></g></svg>